<svg xmlns="http://www.w3.org/2000/svg" width="24" height="24" viewBox="0 0 24 24">
  <metadata><?xpacket begin="﻿" id="W5M0MpCehiHzreSzNTczkc9d"?>
<x:xmpmeta xmlns:x="adobe:ns:meta/" x:xmptk="Adobe XMP Core 5.6-c138 79.159824, 2016/09/14-01:09:01        ">
   <rdf:RDF xmlns:rdf="http://www.w3.org/1999/02/22-rdf-syntax-ns#">
      <rdf:Description rdf:about=""/>
   </rdf:RDF>
</x:xmpmeta>
                                                                                                    
                                                                                                    
                                                                                                    
                                                                                                    
                                                                                                    
                                                                                                    
                                                                                                    
                                                                                                    
                                                                                                    
                                                                                                    
                                                                                                    
                                                                                                    
                                                                                                    
                                                                                                    
                                                                                                    
                                                                                                    
                                                                                                    
                                                                                                    
                                                                                                    
                                                                                                    
                           
<?xpacket end="w"?></metadata>
<defs>
    <style>
      .cls-1 {
        fill: #fff;
        fill-rule: evenodd;
      }
    </style>
  </defs>
  <path id="Follow_user" data-name="Follow user" class="cls-1" d="M1016.04,466a12,12,0,1,0,12,12,12,12,0,0,0-12-12h0Zm-2.56,17.63a1.226,1.226,0,0,1-.89-0.384l-0.34-.354-0.01-.018-2.83-3.006a1.328,1.328,0,0,1,0-1.8l0.3-.312a1.229,1.229,0,0,1,1.78,0l2,2.136,6.03-6.139a1.2,1.2,0,0,1,.88-0.378,1.224,1.224,0,0,1,.89.382l0.3,0.312a1.33,1.33,0,0,1,0,1.8l-6.91,7.048-0.31.329A1.212,1.212,0,0,1,1013.48,483.629Z" transform="translate(-1004.03 -466)"/>
</svg>
