<svg xmlns="http://www.w3.org/2000/svg" width="41.969" height="34" viewBox="0 0 41.969 34">
  <metadata><?xpacket begin="﻿" id="W5M0MpCehiHzreSzNTczkc9d"?>
<x:xmpmeta xmlns:x="adobe:ns:meta/" x:xmptk="Adobe XMP Core 5.6-c138 79.159824, 2016/09/14-01:09:01        ">
   <rdf:RDF xmlns:rdf="http://www.w3.org/1999/02/22-rdf-syntax-ns#">
      <rdf:Description rdf:about=""/>
   </rdf:RDF>
</x:xmpmeta>
                                                                                                    
                                                                                                    
                                                                                                    
                                                                                                    
                                                                                                    
                                                                                                    
                                                                                                    
                                                                                                    
                                                                                                    
                                                                                                    
                                                                                                    
                                                                                                    
                                                                                                    
                                                                                                    
                                                                                                    
                                                                                                    
                                                                                                    
                                                                                                    
                                                                                                    
                                                                                                    
                           
<?xpacket end="w"?></metadata>
<defs>
    <style>
      .cls-1 {
        fill: #fff;
        fill-rule: evenodd;
      }
    </style>
  </defs>
  <path id="Twitter_Icon" data-name="Twitter Icon" class="cls-1" d="M893.013,375.032a17.285,17.285,0,0,1-4.949,1.353,8.62,8.62,0,0,0,3.788-4.746,17.388,17.388,0,0,1-5.469,2.082,8.61,8.61,0,0,0-14.68,7.824,24.51,24.51,0,0,1-17.756-8.962,8.561,8.561,0,0,0,2.666,11.45,8.6,8.6,0,0,1-3.9-1.075c0,0.036,0,.072,0,0.11a8.591,8.591,0,0,0,6.911,8.41,8.747,8.747,0,0,1-3.891.147,8.613,8.613,0,0,0,8.048,5.955,17.329,17.329,0,0,1-10.7,3.674,17,17,0,0,1-2.055-.122,24.456,24.456,0,0,0,13.205,3.855c15.846,0,24.51-13.07,24.51-24.4,0-.37-0.008-0.743-0.024-1.111A17.444,17.444,0,0,0,893.013,375.032Z" transform="translate(-851.031 -371)"/>
</svg>
