<svg id="Группа_1" data-name="Группа 1" xmlns="http://www.w3.org/2000/svg" width="37" height="55" viewBox="0 0 37 55">
  <metadata><?xpacket begin="﻿" id="W5M0MpCehiHzreSzNTczkc9d"?>
<x:xmpmeta xmlns:x="adobe:ns:meta/" x:xmptk="Adobe XMP Core 5.6-c138 79.159824, 2016/09/14-01:09:01        ">
   <rdf:RDF xmlns:rdf="http://www.w3.org/1999/02/22-rdf-syntax-ns#">
      <rdf:Description rdf:about=""/>
   </rdf:RDF>
</x:xmpmeta>
                                                                                                    
                                                                                                    
                                                                                                    
                                                                                                    
                                                                                                    
                                                                                                    
                                                                                                    
                                                                                                    
                                                                                                    
                                                                                                    
                                                                                                    
                                                                                                    
                                                                                                    
                                                                                                    
                                                                                                    
                                                                                                    
                                                                                                    
                                                                                                    
                                                                                                    
                                                                                                    
                           
<?xpacket end="w"?></metadata>
<defs>
    <style>
      .cls-1 {
        fill: #fff;
        stroke: #fff;
        stroke-linejoin: round;
        stroke-width: 1px;
      }

      .cls-1, .cls-2 {
        fill-rule: evenodd;
      }

      .cls-2 {
        fill: #585858;
      }
    </style>
  </defs>
  <path id="Base" class="cls-1" d="M151,1085a2,2,0,0,1,2,2v46a2,2,0,0,1-2,2H121l0-50h30Z" transform="translate(-118.5 -1082.5)"/>
  <path id="Arrow" class="cls-2" d="M135.133,1111l4.732-4.57a1.132,1.132,0,0,0,0-1.65l-0.431-.41a1.267,1.267,0,0,0-1.722,0l-5.57,5.37a0.339,0.339,0,0,0-.028.02l-0.431.41a1.146,1.146,0,0,0,0,1.66l0.431,0.41c0.008,0.01.02,0.01,0.028,0.02l5.57,5.33a1.267,1.267,0,0,0,1.722,0l0.431-.41a1.132,1.132,0,0,0,0-1.65Z" transform="translate(-118.5 -1082.5)"/>
</svg>
