<svg id="Группа_2" data-name="Группа 2" xmlns="http://www.w3.org/2000/svg" width="37" height="55" viewBox="0 0 37 55">
  <metadata><?xpacket begin="﻿" id="W5M0MpCehiHzreSzNTczkc9d"?>
<x:xmpmeta xmlns:x="adobe:ns:meta/" x:xmptk="Adobe XMP Core 5.6-c138 79.159824, 2016/09/14-01:09:01        ">
   <rdf:RDF xmlns:rdf="http://www.w3.org/1999/02/22-rdf-syntax-ns#">
      <rdf:Description rdf:about=""/>
   </rdf:RDF>
</x:xmpmeta>
                                                                                                    
                                                                                                    
                                                                                                    
                                                                                                    
                                                                                                    
                                                                                                    
                                                                                                    
                                                                                                    
                                                                                                    
                                                                                                    
                                                                                                    
                                                                                                    
                                                                                                    
                                                                                                    
                                                                                                    
                                                                                                    
                                                                                                    
                                                                                                    
                                                                                                    
                                                                                                    
                           
<?xpacket end="w"?></metadata>
<defs>
    <style>
      .cls-1 {
        fill: #fff;
        stroke: #fff;
        stroke-linejoin: round;
        stroke-width: 1px;
      }

      .cls-1, .cls-2 {
        fill-rule: evenodd;
      }

      .cls-2 {
        fill: #585858;
      }
    </style>
  </defs>
  <path id="Base" class="cls-1" d="M1017,1085a2,2,0,0,0-2,2v46a2.006,2.006,0,0,0,2,2h30v-50h-30Z" transform="translate(-1012.5 -1082.5)"/>
  <path id="Arrow" class="cls-2" d="M1032.87,1111l-4.74-4.57a1.142,1.142,0,0,1,0-1.65l0.44-.41a1.264,1.264,0,0,1,1.72,0l5.57,5.37c0.01,0.01.02,0.01,0.03,0.02l0.43,0.41a1.159,1.159,0,0,1,0,1.66l-0.43.41c-0.01.01-.02,0.01-0.03,0.02l-5.57,5.33a1.264,1.264,0,0,1-1.72,0l-0.44-.41a1.142,1.142,0,0,1,0-1.65Z" transform="translate(-1012.5 -1082.5)"/>
</svg>
