<svg xmlns="http://www.w3.org/2000/svg" width="18.031" height="18.125" viewBox="0 0 18.031 18.125">
  <metadata><?xpacket begin="﻿" id="W5M0MpCehiHzreSzNTczkc9d"?>
<x:xmpmeta xmlns:x="adobe:ns:meta/" x:xmptk="Adobe XMP Core 5.6-c138 79.159824, 2016/09/14-01:09:01        ">
   <rdf:RDF xmlns:rdf="http://www.w3.org/1999/02/22-rdf-syntax-ns#">
      <rdf:Description rdf:about=""/>
   </rdf:RDF>
</x:xmpmeta>
                                                                                                    
                                                                                                    
                                                                                                    
                                                                                                    
                                                                                                    
                                                                                                    
                                                                                                    
                                                                                                    
                                                                                                    
                                                                                                    
                                                                                                    
                                                                                                    
                                                                                                    
                                                                                                    
                                                                                                    
                                                                                                    
                                                                                                    
                                                                                                    
                                                                                                    
                                                                                                    
                           
<?xpacket end="w"?></metadata>
<defs>
    <style>
      .cls-1 {
        fill: #56ccc8;
        fill-rule: evenodd;
      }
    </style>
  </defs>
  <path id="arrow" class="cls-1" d="M554.983,364.926A9.073,9.073,0,1,1,545.967,374a9.056,9.056,0,0,1,9.016-9.073m1.264,9.081-3.436-3.318a0.822,0.822,0,0,1,0-1.2l0.313-.3a0.914,0.914,0,0,1,1.251,0l4.043,3.9c0.007,0.006.015,0.007,0.021,0.013l0.313,0.3a0.829,0.829,0,0,1,0,1.2l-0.313.3a0.12,0.12,0,0,0-.021.013l-4.043,3.867a0.912,0.912,0,0,1-1.251,0l-0.313-.3a0.822,0.822,0,0,1,0-1.2Z" transform="translate(-545.969 -364.938)"/>
</svg>
