<svg xmlns="http://www.w3.org/2000/svg" width="22.937" height="23.125" viewBox="0 0 22.937 23.125">
  <metadata><?xpacket begin="﻿" id="W5M0MpCehiHzreSzNTczkc9d"?>
<x:xmpmeta xmlns:x="adobe:ns:meta/" x:xmptk="Adobe XMP Core 5.6-c138 79.159824, 2016/09/14-01:09:01        ">
   <rdf:RDF xmlns:rdf="http://www.w3.org/1999/02/22-rdf-syntax-ns#">
      <rdf:Description rdf:about=""/>
   </rdf:RDF>
</x:xmpmeta>
                                                                                                    
                                                                                                    
                                                                                                    
                                                                                                    
                                                                                                    
                                                                                                    
                                                                                                    
                                                                                                    
                                                                                                    
                                                                                                    
                                                                                                    
                                                                                                    
                                                                                                    
                                                                                                    
                                                                                                    
                                                                                                    
                                                                                                    
                                                                                                    
                                                                                                    
                                                                                                    
                           
<?xpacket end="w"?></metadata>
<defs>
    <style>
      .cls-1 {
        fill: #fff;
        fill-rule: evenodd;
      }
    </style>
  </defs>
  <path id="Phone_icon" data-name="Phone icon" class="cls-1" d="M146.755,640.387a2.174,2.174,0,0,0-1.244.4c-0.04.028-3.956,3-3.908,4.553,0.1,3.069,2.377,6.876,6.776,11.315s8.174,6.738,11.232,6.837h0.037c1.516,0,4.431-3.906,4.458-3.944a1.9,1.9,0,0,0-.244-2.644c-0.334-.236-3.971-2.675-4.412-2.947a1.611,1.611,0,0,0-.852-0.225,2.6,2.6,0,0,0-1.2.325c-0.307.162-2.117,1.946-2.672,2.265a34.316,34.316,0,0,1-5.672-5.721c0.317-.559,1.741-2.731,1.9-3.04a2.113,2.113,0,0,0,.091-2.088c-0.255-.407-2.655-4.078-2.92-4.449a1.661,1.661,0,0,0-1.369-.632h0Z" transform="translate(-141.594 -640.375)"/>
</svg>
