<svg id="Группа_5" data-name="Группа 5" xmlns="http://www.w3.org/2000/svg" width="32" height="31.937" viewBox="0 0 32 31.937">
  <metadata><?xpacket begin="﻿" id="W5M0MpCehiHzreSzNTczkc9d"?>
<x:xmpmeta xmlns:x="adobe:ns:meta/" x:xmptk="Adobe XMP Core 5.6-c138 79.159824, 2016/09/14-01:09:01        ">
   <rdf:RDF xmlns:rdf="http://www.w3.org/1999/02/22-rdf-syntax-ns#">
      <rdf:Description rdf:about=""/>
   </rdf:RDF>
</x:xmpmeta>
                                                                                                    
                                                                                                    
                                                                                                    
                                                                                                    
                                                                                                    
                                                                                                    
                                                                                                    
                                                                                                    
                                                                                                    
                                                                                                    
                                                                                                    
                                                                                                    
                                                                                                    
                                                                                                    
                                                                                                    
                                                                                                    
                                                                                                    
                                                                                                    
                                                                                                    
                                                                                                    
                           
<?xpacket end="w"?></metadata>
<defs>
    <style>
      .cls-1 {
        fill: #c5cdd1;
      }

      .cls-2 {
        fill: #fff;
        fill-rule: evenodd;
      }
    </style>
  </defs>
  <circle id="Base" class="cls-1" cx="16" cy="15.969" r="16"/>
  <path id="Pinterest_Icon" data-name="Pinterest Icon" class="cls-2" d="M642.792,452.7a2.771,2.771,0,0,1-2.352-1.177s-0.56,2.177-.677,2.6a10.042,10.042,0,0,1-1.738,3.092,0.129,0.129,0,0,1-.229-0.054,10.383,10.383,0,0,1,.028-3.591c0.185-.767,1.239-5.149,1.239-5.149a3.561,3.561,0,0,1-.308-1.494c0-1.4.828-2.446,1.858-2.446a1.273,1.273,0,0,1,1.3,1.418,20.021,20.021,0,0,1-.849,3.354,1.469,1.469,0,0,0,1.519,1.819c1.824,0,3.053-2.3,3.053-5.024,0-2.071-1.421-3.621-4.006-3.621a4.519,4.519,0,0,0-4.74,4.526,2.691,2.691,0,0,0,.635,1.852,0.454,0.454,0,0,1,.139.528c-0.047.173-.152,0.592-0.2,0.757a0.332,0.332,0,0,1-.482.237,3.624,3.624,0,0,1-1.971-3.611c0-2.683,2.306-5.9,6.881-5.9,3.675,0,6.094,2.611,6.094,5.414C647.986,449.926,645.886,452.7,642.792,452.7Z" transform="translate(-625 -432.063)"/>
</svg>
