<svg id="Группа_3" data-name="Группа 3" xmlns="http://www.w3.org/2000/svg" width="32" height="31.937" viewBox="0 0 32 31.937">
  <metadata><?xpacket begin="﻿" id="W5M0MpCehiHzreSzNTczkc9d"?>
<x:xmpmeta xmlns:x="adobe:ns:meta/" x:xmptk="Adobe XMP Core 5.6-c138 79.159824, 2016/09/14-01:09:01        ">
   <rdf:RDF xmlns:rdf="http://www.w3.org/1999/02/22-rdf-syntax-ns#">
      <rdf:Description rdf:about=""/>
   </rdf:RDF>
</x:xmpmeta>
                                                                                                    
                                                                                                    
                                                                                                    
                                                                                                    
                                                                                                    
                                                                                                    
                                                                                                    
                                                                                                    
                                                                                                    
                                                                                                    
                                                                                                    
                                                                                                    
                                                                                                    
                                                                                                    
                                                                                                    
                                                                                                    
                                                                                                    
                                                                                                    
                                                                                                    
                                                                                                    
                           
<?xpacket end="w"?></metadata>
<defs>
    <style>
      .cls-1 {
        fill: #c5cdd1;
      }

      .cls-2 {
        fill: #fff;
        fill-rule: evenodd;
      }
    </style>
  </defs>
  <circle id="Base" class="cls-1" cx="16" cy="15.969" r="16"/>
  <path id="G_Icon" data-name="G+ Icon" class="cls-2" d="M643.29,340.132c-0.441-.329-1.4-1-1.4-1.456,0-.531.152-0.792,0.954-1.417a3.215,3.215,0,0,0,1.4-2.529,2.982,2.982,0,0,0-1.347-2.675h1.247l1.061-1.086h-4.749c-2.409,0-4.418,1.746-4.418,3.695a3.4,3.4,0,0,0,3.586,3.577c0.158,0,.311-0.01.46-0.02a2,2,0,0,0-.251.923,1.649,1.649,0,0,0,.682,1.233c-0.285,0-.56.008-0.861,0.008-2.76,0-4.675.873-4.675,3.574,0,1.789,2.312,3.041,5.072,3.041,3.145,0,5.108-1.662,5.08-3.567C645.112,342,644.823,341.279,643.29,340.132Zm-5.324-5.368a2.166,2.166,0,0,1,2.069-2.649c1.214,0.036,2,1.227,2.214,2.808s-0.489,2.558-1.7,2.523A2.891,2.891,0,0,1,637.966,334.764ZM640,345.828c-1.793,0-3.088-1.029-3.088-2.29,0-1.238,1.452-1.9,3.209-1.9,0.653,0,2.612,0,3.22,1.514a1.247,1.247,0,0,1,.057.445C643.4,344.865,642.52,345.828,640,345.828Zm11.01-11.813h-2V336h-1.04v-1.983H646v-1h1.969v-2.042h1.04v2.042h2v1Z" transform="translate(-625 -322.063)"/>
</svg>
