<svg id="Группа_2" data-name="Группа 2" xmlns="http://www.w3.org/2000/svg" width="32" height="31.937" viewBox="0 0 32 31.937">
  <metadata><?xpacket begin="﻿" id="W5M0MpCehiHzreSzNTczkc9d"?>
<x:xmpmeta xmlns:x="adobe:ns:meta/" x:xmptk="Adobe XMP Core 5.6-c138 79.159824, 2016/09/14-01:09:01        ">
   <rdf:RDF xmlns:rdf="http://www.w3.org/1999/02/22-rdf-syntax-ns#">
      <rdf:Description rdf:about=""/>
   </rdf:RDF>
</x:xmpmeta>
                                                                                                    
                                                                                                    
                                                                                                    
                                                                                                    
                                                                                                    
                                                                                                    
                                                                                                    
                                                                                                    
                                                                                                    
                                                                                                    
                                                                                                    
                                                                                                    
                                                                                                    
                                                                                                    
                                                                                                    
                                                                                                    
                                                                                                    
                                                                                                    
                                                                                                    
                                                                                                    
                           
<?xpacket end="w"?></metadata>
<defs>
    <style>
      .cls-1 {
        fill: #4fc6f8;
      }

      .cls-2 {
        fill: #fff;
        fill-rule: evenodd;
      }
    </style>
  </defs>
  <circle id="Base" class="cls-1" cx="16" cy="15.969" r="16"/>
  <path id="Twitter_Icon" data-name="Twitter Icon" class="cls-2" d="M651.027,277.547a6.583,6.583,0,0,1-1.889.518,3.3,3.3,0,0,0,1.446-1.816,6.614,6.614,0,0,1-2.087.8,3.289,3.289,0,0,0-5.6,2.993,9.348,9.348,0,0,1-6.776-3.428,3.278,3.278,0,0,0,1.018,4.379,3.275,3.275,0,0,1-1.489-.411c0,0.014,0,.027,0,0.042a3.285,3.285,0,0,0,2.638,3.217,3.3,3.3,0,0,1-.867.115,3.23,3.23,0,0,1-.618-0.059,3.286,3.286,0,0,0,3.071,2.278A6.621,6.621,0,0,1,635,287.531,9.352,9.352,0,0,0,649.4,279.67c0-.141,0-0.283-0.008-0.424A6.673,6.673,0,0,0,651.027,277.547Z" transform="translate(-626 -266.063)"/>
</svg>
