<svg xmlns="http://www.w3.org/2000/svg" width="22.563" height="22.531" viewBox="0 0 22.563 22.531">
  <metadata><?xpacket begin="﻿" id="W5M0MpCehiHzreSzNTczkc9d"?>
<x:xmpmeta xmlns:x="adobe:ns:meta/" x:xmptk="Adobe XMP Core 5.6-c138 79.159824, 2016/09/14-01:09:01        ">
   <rdf:RDF xmlns:rdf="http://www.w3.org/1999/02/22-rdf-syntax-ns#">
      <rdf:Description rdf:about=""/>
   </rdf:RDF>
</x:xmpmeta>
                                                                                                    
                                                                                                    
                                                                                                    
                                                                                                    
                                                                                                    
                                                                                                    
                                                                                                    
                                                                                                    
                                                                                                    
                                                                                                    
                                                                                                    
                                                                                                    
                                                                                                    
                                                                                                    
                                                                                                    
                                                                                                    
                                                                                                    
                                                                                                    
                                                                                                    
                                                                                                    
                           
<?xpacket end="w"?></metadata>
<defs>
    <style>
      .cls-1 {
        fill: #c5cdd1;
        fill-rule: evenodd;
      }
    </style>
  </defs>
  <path id="Info_icon" data-name="Info icon" class="cls-1" d="M151.912,503.877a11.27,11.27,0,1,0,11.417,11.073A11.241,11.241,0,0,0,151.912,503.877Zm1.274,3.724a1.3,1.3,0,0,1,1.47,1.421,1.913,1.913,0,0,1-2.058,1.862,1.35,1.35,0,0,1-1.567-1.47A1.964,1.964,0,0,1,153.186,507.6Zm-2.939,14.552c-0.784,0-1.372-.441-0.833-2.548l0.882-3.724c0.2-.588.2-0.833,0-0.833a6.668,6.668,0,0,0-1.813.833l-0.392-.637c1.911-1.617,4.066-2.547,5-2.547,0.784,0,.931.93,0.539,2.351l-1.029,3.92c-0.2.686-.1,0.931,0.1,0.931a4.546,4.546,0,0,0,1.764-.882l0.441,0.588A8.082,8.082,0,0,1,150.247,522.153Z" transform="translate(-140.781 -503.875)"/>
</svg>
