<svg xmlns="http://www.w3.org/2000/svg" width="22.594" height="22.594" viewBox="0 0 22.594 22.594">
  <metadata><?xpacket begin="﻿" id="W5M0MpCehiHzreSzNTczkc9d"?>
<x:xmpmeta xmlns:x="adobe:ns:meta/" x:xmptk="Adobe XMP Core 5.6-c138 79.159824, 2016/09/14-01:09:01        ">
   <rdf:RDF xmlns:rdf="http://www.w3.org/1999/02/22-rdf-syntax-ns#">
      <rdf:Description rdf:about=""/>
   </rdf:RDF>
</x:xmpmeta>
                                                                                                    
                                                                                                    
                                                                                                    
                                                                                                    
                                                                                                    
                                                                                                    
                                                                                                    
                                                                                                    
                                                                                                    
                                                                                                    
                                                                                                    
                                                                                                    
                                                                                                    
                                                                                                    
                                                                                                    
                                                                                                    
                                                                                                    
                                                                                                    
                                                                                                    
                                                                                                    
                           
<?xpacket end="w"?></metadata>
<defs>
    <style>
      .cls-1 {
        fill: #fff;
        fill-rule: evenodd;
      }
    </style>
  </defs>
  <path id="Note_icon" data-name="Note icon" class="cls-1" d="M161.288,324.662c0.155-.155.279-0.281,0.329-0.332a2.934,2.934,0,0,0,.963-2.081,2.858,2.858,0,0,0-1.007-2,2.7,2.7,0,0,0-1.892-.834,3.059,3.059,0,0,0-2.049.9l-0.447.447Zm-4.81-3.2c-2.762,2.765-9.5,9.522-9.5,9.522a0.546,0.546,0,0,0-.139.242c-0.23.849-1.38,4.619-1.391,4.657a0.544,0.544,0,0,0,.135.544,0.534,0.534,0,0,0,.378.156,0.544,0.544,0,0,0,.164-0.025c0.039-.013,3.926-1.27,4.565-1.462a0.527,0.527,0,0,0,.224-0.132c0.335-.331,7.029-6.965,9.67-9.6Zm-4.71,15.3a2.553,2.553,0,0,1-1.064.627c-0.617.185-4.218,1.245-4.349,1.287a2.6,2.6,0,0,1-.789.126,2.251,2.251,0,0,1-1.7-.684,2.524,2.524,0,0,1-.63-2.54c0.741-2.433,1.245-4.123,1.372-4.593a2.551,2.551,0,0,1,.641-1.119c0.01-.011,7.874-7.87,7.874-7.87H141.333a1.28,1.28,0,0,0-1.322,1.4v17.014A1.435,1.435,0,0,0,141.333,342h16.143a1.533,1.533,0,0,0,1.494-1.54l0.019-10.794C155.962,332.672,152.032,336.505,151.768,336.766Z" transform="translate(-140 -319.406)"/>
</svg>
