<svg xmlns="http://www.w3.org/2000/svg" width="22.062" height="22.062" viewBox="0 0 22.062 22.062">
  <metadata><?xpacket begin="﻿" id="W5M0MpCehiHzreSzNTczkc9d"?>
<x:xmpmeta xmlns:x="adobe:ns:meta/" x:xmptk="Adobe XMP Core 5.6-c138 79.159824, 2016/09/14-01:09:01        ">
   <rdf:RDF xmlns:rdf="http://www.w3.org/1999/02/22-rdf-syntax-ns#">
      <rdf:Description rdf:about=""/>
   </rdf:RDF>
</x:xmpmeta>
                                                                                                    
                                                                                                    
                                                                                                    
                                                                                                    
                                                                                                    
                                                                                                    
                                                                                                    
                                                                                                    
                                                                                                    
                                                                                                    
                                                                                                    
                                                                                                    
                                                                                                    
                                                                                                    
                                                                                                    
                                                                                                    
                                                                                                    
                                                                                                    
                                                                                                    
                                                                                                    
                           
<?xpacket end="w"?></metadata>
<defs>
    <style>
      .cls-1 {
        fill: #c5cdd1;
        fill-rule: evenodd;
      }
    </style>
  </defs>
  <path id="Shop_icon" data-name="Shop icon" class="cls-1" d="M140.625,280.451a2.458,2.458,0,0,0,2.45,2.451,2.427,2.427,0,0,0,2.45-2.451,2.457,2.457,0,0,0-2.45-2.45A2.49,2.49,0,0,0,140.625,280.451Zm12.251,0a2.458,2.458,0,0,0,2.45,2.451,2.427,2.427,0,0,0,2.45-2.451,2.457,2.457,0,0,0-2.45-2.45A2.49,2.49,0,0,0,152.876,280.451Zm-7.89-5.782L158.56,270.8a0.649,0.649,0,0,0,.441-0.637v-6.713H141.752v-2.107a0.528,0.528,0,0,0-.49-0.491H137.44a0.528,0.528,0,0,0-.49.491v1.96h2.4l2.4,11.123L142,275.551v1.862a0.491,0.491,0,0,0,.49.49h16.024a0.491,0.491,0,0,0,.49-0.49v-1.862h-13.77C143.81,275.551,143.81,275.012,144.986,274.669Z" transform="translate(-136.938 -260.844)"/>
</svg>
