<svg xmlns="http://www.w3.org/2000/svg" width="26" height="16.062" viewBox="0 0 26 16.062">
  <metadata><?xpacket begin="﻿" id="W5M0MpCehiHzreSzNTczkc9d"?>
<x:xmpmeta xmlns:x="adobe:ns:meta/" x:xmptk="Adobe XMP Core 5.6-c138 79.159824, 2016/09/14-01:09:01        ">
   <rdf:RDF xmlns:rdf="http://www.w3.org/1999/02/22-rdf-syntax-ns#">
      <rdf:Description rdf:about=""/>
   </rdf:RDF>
</x:xmpmeta>
                                                                                                    
                                                                                                    
                                                                                                    
                                                                                                    
                                                                                                    
                                                                                                    
                                                                                                    
                                                                                                    
                                                                                                    
                                                                                                    
                                                                                                    
                                                                                                    
                                                                                                    
                                                                                                    
                                                                                                    
                                                                                                    
                                                                                                    
                                                                                                    
                                                                                                    
                                                                                                    
                           
<?xpacket end="w"?></metadata>
<defs>
    <style>
      .cls-1 {
        fill: #c5cdd1;
        fill-rule: evenodd;
      }
    </style>
  </defs>
  <path id="Users_icon" data-name="Users icon" class="cls-1" d="M144.109,388A3.087,3.087,0,0,0,141,390.778v1.983a5.026,5.026,0,0,0,1.542,3.511l-2.523,1.6A1.981,1.981,0,0,0,139,399.108v0.456c0,0.439.549,0.435,0.987,0.435H144v-1.594a2.561,2.561,0,0,1,1.363-2.152A5.076,5.076,0,0,0,147,392.761v-1.983A2.876,2.876,0,0,0,144.109,388Zm19.872,9.9-2.524-1.63A5.023,5.023,0,0,0,163,392.761v-1.983A3.088,3.088,0,0,0,159.891,388,2.876,2.876,0,0,0,157,390.778v1.983a5.076,5.076,0,0,0,1.637,3.492A2.561,2.561,0,0,1,160,398.405V400h4.013c0.438,0,.987,0,0.987-0.435v-0.456A1.9,1.9,0,0,0,163.981,397.9Zm-5.913,2.128H146.039A1.031,1.031,0,0,1,145.008,399v-0.594a1.82,1.82,0,0,1,1.068-1.364l4.122-2.322a6.945,6.945,0,0,1-2.266-4.563v-2.577a4.1,4.1,0,0,1,4.125-3.61,3.817,3.817,0,0,1,3.842,3.61v2.577a6.705,6.705,0,0,1-2.245,4.573l4.463,2.416a1.578,1.578,0,0,1,.983,1.26V399A1.031,1.031,0,0,1,158.068,400.03Z" transform="translate(-139 -383.969)"/>
</svg>
